#!OML:ASF H:\ManfredETheater\Project 1\Capture day 1\Session 1\subject.ASF
:FULLY-SPECIFIED
:DEGREES
46
root -1.12931 15.5202 18.2289 -175.305 10.065 -180.189
lowerback 20.9482 -2.65263 1.11568
upperback 0.91765 -2.24518 4.64007
thorax -10.6115 -0.781397 5.1457
lowerneck -17.6196 2.61341 1.48774
upperneck 5.79735 3.98337 -6.12711
head 4.73711 1.65896 -1.79102
rclavicle -1.47101e-014 3.02153e-014
rhumerus -49.5108 -8.96163 -66.037
rradius 87.2449
rwrist -6.83338
rhand -30.2553 1.67045
rfingers 7.12502
rthumb -3.564 -28.2795
lclavicle -1.47101e-014 3.02153e-014
lhumerus -40.4463 -8.02687 94.6771
lradius 71.4071
lwrist -1.21392
lhand -25.5329 -1.15181
lfingers 7.12502
lthumb 0.996915 28.8256
rfemur -45.1901 -9.92784 29.1613
rtibia 68.326
rfoot -20.3944 -17.1262
rtoes -24.165
lfemur -31.7483 7.39935 -19.2526
ltibia 104.708
lfoot -6.38928 -1.34948
ltoes -5.47977
47
root -1.09905 15.4458 17.7345 -175.477 10.1529 -179.081
lowerback 21.194 -2.54322 1.9718
upperback 1.04441 -1.81295 4.85141
thorax -10.6638 -0.591373 4.76825
lowerneck -17.5164 2.4739 1.43787
upperneck 5.74796 3.78829 -5.99115
head 4.69347 1.57264 -1.75967
rclavicle -2.74323e-014 2.70347e-014
rhumerus -47.0667 -8.35804 -68.4768
rradius 88.3619
rwrist -6.31439
rhand -30.3766 1.9931
rfingers 7.12502
rthumb -3.6811 -27.9549
lclavicle -2.74323e-014 2.70347e-014
lhumerus -41.0741 -7.35037 94.486
lradius 67.736
lwrist -1.15431
lhand -26.2863 -1.08179
lfingers 7.12502
lthumb 0.269255 28.8978
rfemur -43.167 -9.65778 29.7091
rtibia 69.5883
rfoot -22.5209 -18.2413
rtoes -26.209
lfemur -36.7156 7.99304 -17.4746
ltibia 106.277
lfoot -7.91197 -0.759422
ltoes -5.56308
48
root -1.06958 15.373 17.2341 -175.671 10.1469 -178.173
lowerback 21.3475 -2.47216 2.68442
upperback 1.14991 -1.48109 5.01254
thorax -10.6707 -0.447146 4.44127
lowerneck -17.4315 2.35916 1.39547
upperneck 5.79426 3.62832 -5.86847
head 4.68477 1.49935 -1.72993
rclavicle 5.24792e-014 2.38542e-014
rhumerus -44.7469 -7.50225 -70.9178
rradius 89.5183
rwrist -5.80541
rhand -30.3997 2.37456
rfingers 7.12502
rthumb -3.70346 -27.573
lclavicle 5.24792e-014 2.38542e-014
lhumerus -42.0996 -6.92749 94.3144
lradius 64.9685
lwrist -0.873671
lhand -26.6994 -1.01643
lfingers 7.12502
lthumb -0.129789 28.9633
rfemur -41.0154 -9.59638 30.044
rtibia 70.63
rfoot -24.5772 -19.2772
rtoes -28.3742
lfemur -41.6507 8.30852 -16.0885
ltibia 106.953
lfoot -9.14756 -0.386936
ltoes -5.7624
49
root -1.04065 15.3065 16.7268 -175.892 10.0783 -177.472
lowerback 21.4217 -2.42244 3.23689
upperback 1.23753 -1.23569 5.11851
thorax -10.6403 -0.341752 4.16697
lowerneck -17.3777 2.26814 1.38229
upperneck 5.91391 3.49822 -5.77159
head 4.70632 1.43709 -1.70978
rclavicle 1.74931e-014 -4.45278e-014
rhumerus -42.589 -6.37919 -73.3444
rradius 90.6927
rwrist -5.32891
rhand -30.3442 2.78308
rfingers 7.12502
rthumb -3.64982 -27.1654
lclavicle 1.74931e-014 -4.45278e-014
lhumerus -43.5612 -6.83929 94.2236
lradius 63.2245
lwrist -0.368587
lhand -26.831 -0.99543
lfingers 7.12502
lthumb -0.256869 28.9842
rfemur -38.7171 -9.68298 30.1315
rtibia 71.4229
rfoot -26.4951 -20.17
rtoes -30.465
lfemur -46.4011 8.35606 -15.0715
ltibia 106.671
lfoot -10.1123 -0.218219
ltoes -6.02066
50
root -1.01189 15.2536 16.2113 -176.107 9.99405 -176.915
lowerback 21.399 -2.38001 3.67526
upperback 1.30244 -1.04769 5.18535
thorax -10.5738 -0.263032 3.92846
lowerneck -17.3529 2.1993 1.40689
upperneck 6.09268 3.39478 -5.70873
head 4.75341 1.38464 -1.70363
rclavicle 1.59028e-015 -7.31528e-014
rhumerus -40.6356 -4.95139 -75.7186
rradius 91.8544
rwrist -4.88908
rhand -30.2276 3.21166
rfingers 7.12502
rthumb -3.53722 -26.7387
lclavicle 1.59028e-015 -7.31528e-014
lhumerus -45.4654 -7.10336 94.2753
lradius 62.5318
lwrist 0.32264
lhand -26.8033 -0.990463
lfingers 7.12502
lthumb -0.230136 28.9892
rfemur -36.2624 -9.82205 30.0236
rtibia 71.9189
rfoot -28.1859 -20.8942
rtoes -32.52
lfemur -50.8165 8.20724 -14.3011
ltibia 105.378
lfoot -10.8558 -0.255903
ltoes -6.46331
51
root -0.982685 15.2243 15.6872 -176.278 9.94255 -176.446
lowerback 21.2688 -2.3222 4.04585
upperback 1.34209 -0.87651 5.22187
thorax -10.472 -0.193604 3.69716
lowerneck -17.3381 2.13888 1.46669
upperneck 6.28035 3.29669 -5.66257
head 4.80601 1.33439 -1.70787
rclavicle 3.69739e-014 4.92986e-014
rhumerus -38.9223 -3.22499 -77.9974
rradius 92.974
rwrist -4.47535
rhand -30.0859 3.64995
rfingers 7.12502
rthumb -3.40039 -26.3027
lclavicle 3.69739e-014 4.92986e-014
lhumerus -47.7617 -7.7008 94.5045
lradius 62.8157
lwrist 1.14253
lhand -26.724 -0.9906
lfingers 7.12502
lthumb -0.153534 28.9891
rfemur -33.6491 -9.91906 29.7758
rtibia 72.0793
rfoot -29.5859 -21.4202
rtoes -34.582
lfemur -54.7351 7.94316 -13.6649
ltibia 103.033
lfoot -11.4455 -0.489189
ltoes -6.97542
52
root -0.953536 15.2215 15.1545 -176.399 9.9293 -176.037
lowerback 21.0362 -2.24232 4.38482
upperback 1.35317 -0.703744 5.2319
thorax -10.3434 -0.125989 3.45228
lowerneck -17.311 2.07108 1.55349
upperneck 6.445 3.18196 -5.61911
head 4.8493 1.27741 -1.71902
rclavicle 4.41302e-014 0
rhumerus -37.4833 -1.23372 -80.1309
rradius 94.0283
rwrist -4.03252
rhand -29.8968 4.11634
rfingers 7.12502
rthumb -3.21778 -25.8391
lclavicle 4.41302e-014 0
lhumerus -50.3834 -8.54304 94.9239
lradius 63.9236
lwrist 2.03334
lhand -26.7123 -1.00083
lfingers 7.12502
lthumb -0.142248 28.9789
rfemur -30.9055 -9.9379 29.4223
rtibia 71.9194
rfoot -30.6037 -21.741
rtoes -36.6931
lfemur -58.0305 7.60109 -13.0935
ltibia 99.6595
lfoot -11.9657 -0.853535
ltoes -7.61515
53
root -0.925476 15.2364 14.6148 -176.447 9.98265 -175.686
lowerback 20.6946 -2.11491 4.68358
upperback 1.32906 -0.499835 5.2158
thorax -10.1916 -0.04631 3.19137
lowerneck -17.257 1.97924 1.64997
upperneck 6.57162 3.02908 -5.5572
head 4.87471 1.20458 -1.72971
rclavicle 5.96354e-015 2.22639e-014
rhumerus -36.339 0.944259 -82.0769
rradius 94.9983
rwrist -3.48137
rhand -29.6584 4.61393
rfingers 7.12502
rthumb -2.98752 -25.3449
lclavicle 5.96354e-015 2.22639e-014
lhumerus -53.2401 -9.51411 95.5105
lradius 65.6639
lwrist 2.91005
lhand -26.7746 -0.970289
lfingers 7.12502
lthumb -0.202394 29.0094
rfemur -28.1498 -9.83241 28.979
rtibia 71.5395
rfoot -31.1558 -21.8499
rtoes -38.8184
lfemur -60.704 7.23199 -12.5579
ltibia 95.3684
lfoot -12.4174 -1.30557
ltoes -8.30817
